<svg width="30" height="29" viewBox="0 0 30 29" fill="none" xmlns="http://www.w3.org/2000/svg">
<path d="M12.2814 12.1655C11.4549 12.1655 10.8024 12.8905 10.8024 13.775C10.8024 14.6595 11.4694 15.3845 12.2814 15.3845C13.1079 15.3845 13.7604 14.6595 13.7604 13.775C13.7749 12.8905 13.1079 12.1655 12.2814 12.1655ZM17.5739 12.1655C16.7474 12.1655 16.0949 12.8905 16.0949 13.775C16.0949 14.6595 16.7619 15.3845 17.5739 15.3845C18.4004 15.3845 19.0529 14.6595 19.0529 13.775C19.0529 12.8905 18.4004 12.1655 17.5739 12.1655Z" fill="#B2B2B2"/>
<path d="M24.6209 0H5.19088C3.55238 0 2.21838 1.334 2.21838 2.987V22.591C2.21838 24.244 3.55238 25.578 5.19088 25.578H21.6339L20.8654 22.8955L22.7214 24.621L24.4759 26.245L27.5934 29V2.987C27.5934 1.334 26.2594 0 24.6209 0ZM19.0239 18.937C19.0239 18.937 18.5019 18.3135 18.0669 17.7625C19.9664 17.226 20.6914 16.037 20.6914 16.037C20.0969 16.4285 19.5314 16.704 19.0239 16.8925C18.2989 17.197 17.6029 17.4 16.9214 17.516C15.5294 17.777 14.2534 17.7045 13.1659 17.5015C12.3394 17.342 11.6289 17.11 11.0344 16.878C10.7009 16.7475 10.3384 16.588 9.97588 16.385C9.93238 16.356 9.88888 16.3415 9.84538 16.3125C9.81638 16.298 9.80188 16.2835 9.78738 16.269C9.52638 16.124 9.38138 16.0225 9.38138 16.0225C9.38138 16.0225 10.0774 17.1825 11.9189 17.7335C11.4839 18.2845 10.9474 18.937 10.9474 18.937C7.74288 18.8355 6.52488 16.733 6.52488 16.733C6.52488 12.064 8.61288 8.2795 8.61288 8.2795C10.7009 6.7135 12.6874 6.757 12.6874 6.757L12.8324 6.931C10.2224 7.685 9.01888 8.8305 9.01888 8.8305C9.01888 8.8305 9.33788 8.6565 9.87438 8.41C11.4259 7.7285 12.6584 7.54 13.1659 7.4965C13.2529 7.482 13.3254 7.4675 13.4124 7.4675C14.2969 7.3515 15.2974 7.3225 16.3414 7.4385C17.7189 7.598 19.1979 8.004 20.7059 8.8305C20.7059 8.8305 19.5604 7.743 17.0954 6.989L17.2984 6.757C17.2984 6.757 19.2849 6.7135 21.3729 8.2795C21.3729 8.2795 23.4609 12.064 23.4609 16.733C23.4609 16.733 22.2284 18.8355 19.0239 18.937Z" fill="#B2B2B2"/>
</svg>
