<svg width="29" height="24" viewBox="0 0 29 24" fill="none" xmlns="http://www.w3.org/2000/svg">
<path d="M9.12311 23.5634C20.0638 23.5634 26.0496 14.4969 26.0496 6.63688C26.0496 6.382 26.0439 6.12145 26.0326 5.86657C27.197 5.02448 28.2019 3.98144 29 2.78645C27.9155 3.26894 26.7642 3.58405 25.5851 3.72102C26.8265 2.9769 27.7561 1.80791 28.2014 0.43077C27.0335 1.12289 25.7563 1.61112 24.4246 1.87454C23.5273 0.921104 22.3409 0.289817 21.0488 0.07828C19.7567 -0.133257 18.4309 0.0867376 17.2764 0.704252C16.1219 1.32177 15.203 2.3024 14.6617 3.49455C14.1205 4.6867 13.987 6.02396 14.2819 7.29958C11.9172 7.18091 9.60376 6.56661 7.49164 5.4965C5.37953 4.4264 3.51588 2.92437 2.0215 1.0878C1.26198 2.3973 1.02957 3.94687 1.3715 5.42158C1.71342 6.89628 2.60403 8.18547 3.86232 9.02712C2.91768 8.99713 1.99372 8.74279 1.1668 8.28512V8.35876C1.16595 9.73298 1.64103 11.0651 2.51129 12.1286C3.38155 13.1922 4.59327 13.9216 5.94047 14.1927C5.0654 14.4322 4.14698 14.467 3.25627 14.2947C3.63642 15.4765 4.37607 16.5102 5.37197 17.2515C6.36788 17.9927 7.57035 18.4045 8.81158 18.4295C6.70435 20.0847 4.10129 20.9825 1.42168 20.9783C0.946472 20.9776 0.471732 20.9484 0 20.8911C2.7222 22.6375 5.88885 23.5651 9.12311 23.5634Z" fill="#B2B2B2"/>
</svg>
